<?xml version="1.0" encoding="utf-8" ?>
<svg baseProfile="full" height="297mm" version="1.1" viewBox="0 0 210 297" width="210mm" xmlns="http://www.w3.org/2000/svg" xmlns:ev="http://www.w3.org/2001/xml-events" xmlns:xlink="http://www.w3.org/1999/xlink"><title>Sheet 05 - Base Tray | A4 portrait 210x297 mm | target export 96 dpi</title><defs /><text fill="black" font-family="Arial" font-size="3.6px" x="10" y="10">Sheet 05 - Base Tray</text><text fill="black" font-family="Arial" font-size="3.6px" x="10" y="16">Parts: I floor, J side walls, K back wall, L front lip</text><rect fill="none" height="130.0" stroke="black" stroke-width="0.5" width="100.0" x="62.2" y="79.0" /><rect fill="none" height="10.0" stroke="black" stroke-width="0.5" width="100.0" x="62.2" y="69.0" /><rect fill="none" height="25.0" stroke="black" stroke-width="0.5" width="100.0" x="62.2" y="209.0" /><rect fill="none" height="130.0" stroke="black" stroke-width="0.5" width="25.0" x="37.2" y="79.0" /><rect fill="none" height="130.0" stroke="black" stroke-width="0.5" width="25.0" x="162.2" y="79.0" /><rect fill="#e6e6e6" height="10.0" stroke="none" width="10.0" x="52.2" y="69.0" /><rect fill="none" height="10.0" stroke="black" stroke-width="0.5" width="10.0" x="52.2" y="69.0" /><rect fill="#e6e6e6" height="10.0" stroke="none" width="10.0" x="162.2" y="69.0" /><rect fill="none" height="10.0" stroke="black" stroke-width="0.5" width="10.0" x="162.2" y="69.0" /><rect fill="#e6e6e6" height="25.0" stroke="none" width="10.0" x="52.2" y="209.0" /><rect fill="none" height="25.0" stroke="black" stroke-width="0.5" width="10.0" x="52.2" y="209.0" /><rect fill="#e6e6e6" height="25.0" stroke="none" width="10.0" x="162.2" y="209.0" /><rect fill="none" height="25.0" stroke="black" stroke-width="0.5" width="10.0" x="162.2" y="209.0" /><rect fill="#e6e6e6" height="20.0" stroke="none" width="65.0" x="79.7" y="234.0" /><rect fill="none" height="20.0" stroke="black" stroke-width="0.5" width="65.0" x="79.7" y="234.0" /><line fill="none" stroke="blue" stroke-dasharray="4,2" stroke-width="0.5" x1="62.2" x2="162.2" y1="79.0" y2="79.0" /><line fill="none" stroke="blue" stroke-dasharray="4,2" stroke-width="0.5" x1="62.2" x2="162.2" y1="209.0" y2="209.0" /><line fill="none" stroke="blue" stroke-dasharray="4,2" stroke-width="0.5" x1="62.2" x2="62.2" y1="79.0" y2="209.0" /><line fill="none" stroke="blue" stroke-dasharray="4,2" stroke-width="0.5" x1="162.2" x2="162.2" y1="79.0" y2="209.0" /><line fill="none" stroke="blue" stroke-dasharray="4,2" stroke-width="0.5" x1="62.2" x2="62.2" y1="69.0" y2="79.0" /><line fill="none" stroke="blue" stroke-dasharray="4,2" stroke-width="0.5" x1="162.2" x2="162.2" y1="69.0" y2="79.0" /><line fill="none" stroke="blue" stroke-dasharray="4,2" stroke-width="0.5" x1="62.2" x2="62.2" y1="209.0" y2="234.0" /><line fill="none" stroke="blue" stroke-dasharray="4,2" stroke-width="0.5" x1="162.2" x2="162.2" y1="209.0" y2="234.0" /><line fill="none" stroke="red" stroke-dasharray="1,2" stroke-width="0.5" x1="79.7" x2="144.7" y1="234.0" y2="234.0" /><text fill="black" font-family="Arial" font-size="3.6px" x="105.2" y="77.5">F1</text><text fill="black" font-family="Arial" font-size="3.6px" x="105.2" y="207.5">F2</text><text fill="black" font-family="Arial" font-size="3.6px" x="63.400000000000006" y="89.0">F3</text><text fill="black" font-family="Arial" font-size="3.6px" x="163.39999999999998" y="89.0">F4</text><text fill="black" font-family="Arial" font-size="3.6px" x="105.2" y="232.5">F5(M)</text><text fill="black" font-family="Arial" font-size="3.6px" x="94.2" y="144.0">I - TRAY FLOOR</text><text fill="black" font-family="Arial" font-size="2.88px" x="93.2" y="76.0">L - FRONT LIP (LOW)</text><text fill="black" font-family="Arial" font-size="3.6px" x="92.2" y="223.0">K - BACK WALL</text><text fill="black" font-family="Arial" font-size="3.6px" transform="rotate(-90 46.2 151.0)" x="46.2" y="151.0">J - SIDE WALL</text><text fill="black" font-family="Arial" font-size="3.6px" transform="rotate(-90 176.2 151.0)" x="176.2" y="151.0">J - SIDE WALL</text><text fill="black" font-family="Arial" font-size="2.88px" x="91.7" y="246.0">GLUE FLAP (TO REAR / COLLAR ZONE)</text><text fill="black" font-family="Arial" font-size="3.6px" x="10" y="28">ASSEMBLY (Sheet 05 only):</text><text fill="black" font-family="Arial" font-size="3.6px" x="10" y="34">1) SCORE F1/F2/F3/F4/F5(M).</text><text fill="black" font-family="Arial" font-size="3.6px" x="10" y="40">2) FOLD F1-F4 inward to 90° (valley).</text><text fill="black" font-family="Arial" font-size="3.6px" x="10" y="46">3) FOLD F5(M) as mountain, then glue rear flap.</text><text fill="black" font-family="Arial" font-size="3.6px" x="10" y="52">4) Glue 4 gray corner tabs inside side walls J.</text><text fill="black" font-family="Arial" font-size="3.6px" x="10" y="58">5) Keep FRONT LIP toward dice exit side.</text><text fill="black" font-family="Arial" font-size="3.6px" x="10" y="64">6) BLACK SOLID lines = CUT ONLY.</text><text fill="black" font-family="Arial" font-size="2.88px" x="10" y="252.3">NOTE: If BLUE touches BLACK edge, treat it as FOLD line.</text><text fill="black" font-family="Arial" font-size="2.88px" x="10" y="259">LEGEND</text><line fill="none" stroke="black" stroke-width="0.5" x1="10" x2="24.4" y1="262.2" y2="262.2" /><text fill="black" font-family="Arial" font-size="2.88px" x="26.8" y="263.0">CUT</text><line fill="none" stroke="blue" stroke-dasharray="4,2" stroke-width="0.5" x1="10" x2="24.4" y1="267.0" y2="267.0" /><text fill="black" font-family="Arial" font-size="2.88px" x="26.8" y="267.8">VALLEY FOLD</text><line fill="none" stroke="red" stroke-dasharray="1,2" stroke-width="0.5" x1="10" x2="24.4" y1="271.8" y2="271.8" /><text fill="black" font-family="Arial" font-size="2.88px" x="26.8" y="272.6">MOUNTAIN FOLD</text><rect fill="#e6e6e6" height="4.800000000000001" stroke="none" width="14.4" x="10" y="275.0" /><text fill="black" font-family="Arial" font-size="2.88px" x="26.8" y="279.0">GLUE TAB</text><polygon fill="#FF6600" points="10,281.4 24.4,281.4 10,286.2" stroke="black" stroke-width="0.32000000000000006" /><text fill="black" font-family="Arial" font-size="2.88px" x="26.8" y="285.4">NOTCH – CUT &amp; REMOVE</text><rect fill="none" height="20" stroke="black" stroke-width="0.5" width="20" x="180" y="267" /><text fill="black" font-family="Arial" font-size="3.6px" x="162" y="291">20 x 20 mm</text></svg>