<?xml version="1.0" encoding="utf-8" ?>
<svg baseProfile="full" height="297mm" version="1.1" viewBox="0 0 210 297" width="210mm" xmlns="http://www.w3.org/2000/svg" xmlns:ev="http://www.w3.org/2001/xml-events" xmlns:xlink="http://www.w3.org/1999/xlink"><title>Sheet 02 - Body Part B | A4 portrait 210x297 mm | target export 96 dpi</title><defs /><text fill="black" font-family="Arial" font-size="3.6px" x="10" y="10">Sheet 02 - Body Part B</text><rect fill="#e6e6e6" height="190.0" stroke="none" width="10.0" x="20" y="30" /><rect fill="#e6e6e6" height="190.0" stroke="none" width="10.0" x="160.0" y="30" /><rect fill="none" height="190.0" stroke="black" stroke-width="0.5" width="150.0" x="20" y="30" /><line fill="none" stroke="blue" stroke-dasharray="4,2" stroke-width="0.5" x1="30.0" x2="30.0" y1="30" y2="220.0" /><line fill="none" stroke="blue" stroke-dasharray="4,2" stroke-width="0.5" x1="95.0" x2="95.0" y1="30" y2="220.0" /><line fill="none" stroke="blue" stroke-dasharray="4,2" stroke-width="0.5" x1="160.0" x2="160.0" y1="30" y2="220.0" /><text fill="black" font-family="Arial" font-size="3.6px" x="31.2" y="38">F1</text><text fill="black" font-family="Arial" font-size="3.6px" x="96.2" y="38">F2</text><text fill="black" font-family="Arial" font-size="3.6px" x="161.2" y="38">F3</text><text dominant-baseline="middle" fill="black" font-family="Arial" font-size="3.6px" text-anchor="middle" transform="rotate(-90 25.0 125.0)" x="25.0" y="125.0">GLUE TAB A</text><text fill="black" font-family="Arial" font-size="3.6px" x="55.0" y="125">BACK</text><text fill="black" font-family="Arial" font-size="3.6px" x="109.0" y="125">RIGHT SIDE</text><text dominant-baseline="middle" fill="black" font-family="Arial" font-size="3.6px" text-anchor="middle" transform="rotate(90 165.0 125.0)" x="165.0" y="125.0">GLUE TAB B</text><line fill="none" stroke="blue" stroke-dasharray="4,2" stroke-width="0.5" x1="26.0" x2="34.0" y1="70.0" y2="70.0" /><text fill="black" font-family="Arial" font-size="3.6px" x="35.0" y="71.5">A-L 150mm</text><line fill="none" stroke="blue" stroke-dasharray="4,2" stroke-width="0.5" x1="156.0" x2="164.0" y1="80.0" y2="80.0" /><text fill="black" font-family="Arial" font-size="3.6px" x="165.0" y="81.5">A-R 140mm</text><line fill="none" stroke="blue" stroke-dasharray="4,2" stroke-width="0.5" x1="26.0" x2="34.0" y1="130.0" y2="130.0" /><text fill="black" font-family="Arial" font-size="3.6px" x="35.0" y="131.5">B-L 90mm</text><line fill="none" stroke="blue" stroke-dasharray="4,2" stroke-width="0.5" x1="156.0" x2="164.0" y1="120.0" y2="120.0" /><text fill="black" font-family="Arial" font-size="3.6px" x="165.0" y="121.5">B-R 100mm</text><line fill="none" stroke="blue" stroke-dasharray="4,2" stroke-width="0.5" x1="26.0" x2="34.0" y1="170.0" y2="170.0" /><text fill="black" font-family="Arial" font-size="3.6px" x="35.0" y="171.5">C-L 50mm</text><line fill="none" stroke="blue" stroke-dasharray="4,2" stroke-width="0.5" x1="156.0" x2="164.0" y1="180.0" y2="180.0" /><text fill="black" font-family="Arial" font-size="3.6px" x="165.0" y="181.5">C-R 40mm</text><text fill="black" font-family="Arial" font-size="3.6px" x="10" y="22">FOLD GUIDE: 1) SCORE BLUE DASHED lines (F1/F2/F3).</text><text fill="black" font-family="Arial" font-size="3.6px" x="10" y="26">2) FOLD F1/F2/F3 inward to 90°.  3) BLACK SOLID lines = CUT ONLY.</text><text fill="black" font-family="Arial" font-size="3.6px" x="10" y="258">NOTE: If BLUE touches BLACK edge, treat it as FOLD line.</text><text fill="black" font-family="Arial" font-size="3.6px" x="10" y="265">LEGEND</text><line fill="none" stroke="black" stroke-width="0.5" x1="10" x2="28" y1="269" y2="269" /><text fill="black" font-family="Arial" font-size="3.6px" x="31" y="270">CUT</text><line fill="none" stroke="blue" stroke-dasharray="4,2" stroke-width="0.5" x1="10" x2="28" y1="275" y2="275" /><text fill="black" font-family="Arial" font-size="3.6px" x="31" y="276">VALLEY FOLD</text><line fill="none" stroke="red" stroke-dasharray="1,2" stroke-width="0.5" x1="10" x2="28" y1="281" y2="281" /><text fill="black" font-family="Arial" font-size="3.6px" x="31" y="282">MOUNTAIN FOLD</text><rect fill="#e6e6e6" height="6" stroke="none" width="18" x="10" y="285" /><text fill="black" font-family="Arial" font-size="3.6px" x="31" y="290">GLUE TAB</text><rect fill="none" height="20" stroke="black" stroke-width="0.5" width="20" x="180" y="267" /><text fill="black" font-family="Arial" font-size="3.6px" x="162" y="291">20 x 20 mm</text></svg>