<?xml version="1.0" encoding="utf-8" ?>
<svg baseProfile="full" height="297mm" version="1.1" viewBox="0 0 210 297" width="210mm" xmlns="http://www.w3.org/2000/svg" xmlns:ev="http://www.w3.org/2001/xml-events" xmlns:xlink="http://www.w3.org/1999/xlink"><title>Sheet 03 - Ramps A and B | A4 portrait 210x297 mm | target export 96 dpi</title><defs /><text fill="black" font-family="Arial" font-size="3.6px" x="10" y="10">Sheet 03 - Ramps A and B</text><text fill="black" font-family="Arial" font-size="3.6px" x="10" y="16">GEOMETRIC DEVELOPMENT (v002): accordion/stepped profile.</text><text fill="black" font-family="Arial" font-size="3.6px" x="10" y="22">Pitch p=8mm, rise h=3.0mm, modules=8.</text><text fill="black" font-family="Arial" font-size="3.6px" x="10" y="28">Horizontal folds alternate M/V from BACK TAB hinge (red then blue...).</text><text fill="black" font-family="Arial" font-size="3.6px" x="10" y="34">Flow directions: RAMP A L-&gt;R, RAMP B R-&gt;L.</text><text fill="black" font-family="Arial" font-size="3.6px" x="148" y="9">3D EXAMPLE (folded profile)</text><polyline fill="none" points="148,16 156,13 172,13 180,16" stroke="black" stroke-width="0.5" /><polyline fill="none" points="148,28 156,25 172,25 180,28" stroke="black" stroke-width="0.5" /><line fill="none" stroke="black" stroke-width="0.5" x1="148" x2="148" y1="16" y2="28" /><line fill="none" stroke="black" stroke-width="0.5" x1="156" x2="156" y1="13" y2="25" /><line fill="none" stroke="black" stroke-width="0.5" x1="172" x2="172" y1="13" y2="25" /><line fill="none" stroke="black" stroke-width="0.5" x1="180" x2="180" y1="16" y2="28" /><line fill="none" stroke="red" stroke-dasharray="1,2" stroke-width="0.5" x1="156" x2="160" y1="19" y2="22" /><line fill="none" stroke="blue" stroke-dasharray="4,2" stroke-width="0.5" x1="160" x2="164" y1="22" y2="19" /><line fill="none" stroke="red" stroke-dasharray="1,2" stroke-width="0.5" x1="164" x2="168" y1="19" y2="22" /><line fill="none" stroke="blue" stroke-dasharray="4,2" stroke-width="0.5" x1="168" x2="172" y1="22" y2="19" /><text fill="black" font-family="Arial" font-size="3.6px" x="181" y="23">M/V</text><rect fill="#e6e6e6" height="81.0" stroke="none" width="8.0" x="20" y="70" /><rect fill="#e6e6e6" height="81.0" stroke="none" width="8.0" x="85.0" y="70" /><rect fill="#e6e6e6" height="8.0" stroke="none" width="57.0" x="28.0" y="62.0" /><rect fill="none" height="81.0" stroke="black" stroke-width="0.5" width="73.0" x="20" y="70" /><rect fill="none" height="8.0" stroke="black" stroke-width="0.5" width="57.0" x="28.0" y="62.0" /><line fill="none" stroke="blue" stroke-dasharray="4,2" stroke-width="0.5" x1="28.0" x2="28.0" y1="70" y2="151.0" /><line fill="none" stroke="blue" stroke-dasharray="4,2" stroke-width="0.5" x1="85.0" x2="85.0" y1="70" y2="151.0" /><line fill="none" stroke="red" stroke-dasharray="1,2" stroke-width="0.5" x1="28.0" x2="85.0" y1="70" y2="70" /><line fill="none" stroke="blue" stroke-dasharray="4,2" stroke-width="0.5" x1="28.0" x2="85.0" y1="78.0" y2="78.0" /><line fill="none" stroke="red" stroke-dasharray="1,2" stroke-width="0.5" x1="28.0" x2="85.0" y1="86.0" y2="86.0" /><line fill="none" stroke="blue" stroke-dasharray="4,2" stroke-width="0.5" x1="28.0" x2="85.0" y1="94.0" y2="94.0" /><line fill="none" stroke="red" stroke-dasharray="1,2" stroke-width="0.5" x1="28.0" x2="85.0" y1="102.0" y2="102.0" /><line fill="none" stroke="blue" stroke-dasharray="4,2" stroke-width="0.5" x1="28.0" x2="85.0" y1="110.0" y2="110.0" /><line fill="none" stroke="red" stroke-dasharray="1,2" stroke-width="0.5" x1="28.0" x2="85.0" y1="118.0" y2="118.0" /><line fill="none" stroke="blue" stroke-dasharray="4,2" stroke-width="0.5" x1="28.0" x2="85.0" y1="126.0" y2="126.0" /><line fill="none" stroke="blue" stroke-dasharray="4,2" stroke-width="0.5" x1="33.0" x2="33.0" y1="70" y2="151.0" /><line fill="none" stroke="blue" stroke-dasharray="4,2" stroke-width="0.5" x1="80.0" x2="80.0" y1="70" y2="151.0" /><text fill="black" font-family="Arial" font-size="3.6px" x="30.0" y="82">RAMP A</text><text fill="black" font-family="Arial" font-size="3.6px" x="30.0" y="90">HIGH SIDE</text><text fill="black" font-family="Arial" font-size="3.6px" x="67.0" y="90">LOW SIDE</text><text dominant-baseline="middle" fill="black" font-family="Arial" font-size="3.6px" text-anchor="middle" transform="rotate(-90 24.0 110.5)" x="24.0" y="110.5">GLUE TO WALL</text><text dominant-baseline="middle" fill="black" font-family="Arial" font-size="3.6px" text-anchor="middle" transform="rotate(90 89.0 110.5)" x="89.0" y="110.5">GLUE TO WALL</text><text fill="black" font-family="Arial" font-size="3.6px" x="48.5" y="68">BACK TAB</text><text fill="black" font-family="Arial" font-size="3.6px" x="30.0" y="147.0">FLOW -&gt;</text><text fill="black" font-family="Arial" font-size="3.6px" x="29.0" y="158.0">OUTER BLUE vertical = TAB fold</text><text fill="black" font-family="Arial" font-size="3.6px" x="29.0" y="163.0">INNER BLUE vertical = SIDE-WALL fold (5mm)</text><rect fill="#e6e6e6" height="81.0" stroke="none" width="8.0" x="110" y="70" /><rect fill="#e6e6e6" height="81.0" stroke="none" width="8.0" x="175.0" y="70" /><rect fill="#e6e6e6" height="8.0" stroke="none" width="57.0" x="118.0" y="62.0" /><rect fill="none" height="81.0" stroke="black" stroke-width="0.5" width="73.0" x="110" y="70" /><rect fill="none" height="8.0" stroke="black" stroke-width="0.5" width="57.0" x="118.0" y="62.0" /><line fill="none" stroke="blue" stroke-dasharray="4,2" stroke-width="0.5" x1="118.0" x2="118.0" y1="70" y2="151.0" /><line fill="none" stroke="blue" stroke-dasharray="4,2" stroke-width="0.5" x1="175.0" x2="175.0" y1="70" y2="151.0" /><line fill="none" stroke="red" stroke-dasharray="1,2" stroke-width="0.5" x1="118.0" x2="175.0" y1="70" y2="70" /><line fill="none" stroke="blue" stroke-dasharray="4,2" stroke-width="0.5" x1="118.0" x2="175.0" y1="78.0" y2="78.0" /><line fill="none" stroke="red" stroke-dasharray="1,2" stroke-width="0.5" x1="118.0" x2="175.0" y1="86.0" y2="86.0" /><line fill="none" stroke="blue" stroke-dasharray="4,2" stroke-width="0.5" x1="118.0" x2="175.0" y1="94.0" y2="94.0" /><line fill="none" stroke="red" stroke-dasharray="1,2" stroke-width="0.5" x1="118.0" x2="175.0" y1="102.0" y2="102.0" /><line fill="none" stroke="blue" stroke-dasharray="4,2" stroke-width="0.5" x1="118.0" x2="175.0" y1="110.0" y2="110.0" /><line fill="none" stroke="red" stroke-dasharray="1,2" stroke-width="0.5" x1="118.0" x2="175.0" y1="118.0" y2="118.0" /><line fill="none" stroke="blue" stroke-dasharray="4,2" stroke-width="0.5" x1="118.0" x2="175.0" y1="126.0" y2="126.0" /><line fill="none" stroke="blue" stroke-dasharray="4,2" stroke-width="0.5" x1="123.0" x2="123.0" y1="70" y2="151.0" /><line fill="none" stroke="blue" stroke-dasharray="4,2" stroke-width="0.5" x1="170.0" x2="170.0" y1="70" y2="151.0" /><text fill="black" font-family="Arial" font-size="3.6px" x="120.0" y="82">RAMP B</text><text fill="black" font-family="Arial" font-size="3.6px" x="157.0" y="90">HIGH SIDE</text><text fill="black" font-family="Arial" font-size="3.6px" x="120.0" y="90">LOW SIDE</text><text dominant-baseline="middle" fill="black" font-family="Arial" font-size="3.6px" text-anchor="middle" transform="rotate(-90 114.0 110.5)" x="114.0" y="110.5">GLUE TO WALL</text><text dominant-baseline="middle" fill="black" font-family="Arial" font-size="3.6px" text-anchor="middle" transform="rotate(90 179.0 110.5)" x="179.0" y="110.5">GLUE TO WALL</text><text fill="black" font-family="Arial" font-size="3.6px" x="138.5" y="68">BACK TAB</text><text fill="black" font-family="Arial" font-size="3.6px" x="120.0" y="147.0">FLOW &lt;-</text><text fill="black" font-family="Arial" font-size="3.6px" x="119.0" y="158.0">OUTER BLUE vertical = TAB fold</text><text fill="black" font-family="Arial" font-size="3.6px" x="119.0" y="163.0">INNER BLUE vertical = SIDE-WALL fold (5mm)</text><text fill="black" font-family="Arial" font-size="3.6px" x="10" y="265">LEGEND</text><line fill="none" stroke="black" stroke-width="0.5" x1="10" x2="28" y1="269" y2="269" /><text fill="black" font-family="Arial" font-size="3.6px" x="31" y="270">CUT</text><line fill="none" stroke="blue" stroke-dasharray="4,2" stroke-width="0.5" x1="10" x2="28" y1="275" y2="275" /><text fill="black" font-family="Arial" font-size="3.6px" x="31" y="276">VALLEY FOLD</text><line fill="none" stroke="red" stroke-dasharray="1,2" stroke-width="0.5" x1="10" x2="28" y1="281" y2="281" /><text fill="black" font-family="Arial" font-size="3.6px" x="31" y="282">MOUNTAIN FOLD</text><rect fill="#e6e6e6" height="6" stroke="none" width="18" x="10" y="285" /><text fill="black" font-family="Arial" font-size="3.6px" x="31" y="290">GLUE TAB</text><rect fill="none" height="20" stroke="black" stroke-width="0.5" width="20" x="180" y="267" /><text fill="black" font-family="Arial" font-size="3.6px" x="162" y="291">20 x 20 mm</text></svg>