<?xml version="1.0" encoding="utf-8" ?>
<svg baseProfile="full" height="297mm" version="1.1" viewBox="0 0 210 297" width="210mm" xmlns="http://www.w3.org/2000/svg" xmlns:ev="http://www.w3.org/2001/xml-events" xmlns:xlink="http://www.w3.org/1999/xlink"><title>Sheet 04 - Ramp C | A4 portrait 210x297 mm | target export 96 dpi</title><defs /><text fill="black" font-family="Arial" font-size="3.6px" x="10" y="10">Sheet 04 - Ramp C</text><text fill="black" font-family="Arial" font-size="5px" font-weight="bold" x="10" y="14">v003 — RAMP C</text><text fill="black" font-family="Arial" font-size="3.6px" x="10" y="20">Pitch p=14mm  rise h=5.0mm  modules=6  wall=5mm  See Sheet 06 for full instructions.</text><text fill="black" font-family="Arial" font-size="3.6px" x="10" y="27">RAMP C:  L → R (toward exit — HIGH side at back tab)</text><rect fill="#e6e6e6" height="84.0" stroke="none" width="10.0" x="62" y="45" /><rect fill="#e6e6e6" height="84.0" stroke="none" width="10.0" x="137.0" y="45" /><rect fill="#e6e6e6" height="10.0" stroke="none" width="65.0" x="72.0" y="35.0" /><rect fill="none" height="84.0" stroke="black" stroke-width="0.5" width="85.0" x="62" y="45" /><rect fill="none" height="10.0" stroke="black" stroke-width="0.5" width="65.0" x="72.0" y="35.0" /><line fill="none" stroke="blue" stroke-dasharray="4,2" stroke-width="0.5" x1="72.0" x2="72.0" y1="45" y2="129.0" /><line fill="none" stroke="blue" stroke-dasharray="4,2" stroke-width="0.5" x1="137.0" x2="137.0" y1="45" y2="129.0" /><line fill="none" stroke="red" stroke-dasharray="1,2" stroke-width="0.5" x1="72.0" x2="137.0" y1="45" y2="45" /><line fill="none" stroke="blue" stroke-dasharray="4,2" stroke-width="0.5" x1="72.0" x2="137.0" y1="59.0" y2="59.0" /><line fill="none" stroke="red" stroke-dasharray="1,2" stroke-width="0.5" x1="72.0" x2="137.0" y1="73.0" y2="73.0" /><line fill="none" stroke="blue" stroke-dasharray="4,2" stroke-width="0.5" x1="72.0" x2="137.0" y1="87.0" y2="87.0" /><line fill="none" stroke="red" stroke-dasharray="1,2" stroke-width="0.5" x1="72.0" x2="137.0" y1="101.0" y2="101.0" /><line fill="none" stroke="blue" stroke-dasharray="4,2" stroke-width="0.5" x1="72.0" x2="137.0" y1="115.0" y2="115.0" /><line fill="none" stroke="blue" stroke-dasharray="4,2" stroke-width="0.5" x1="77.0" x2="77.0" y1="45" y2="129.0" /><line fill="none" stroke="blue" stroke-dasharray="4,2" stroke-width="0.5" x1="132.0" x2="132.0" y1="45" y2="129.0" /><text fill="black" font-family="Arial" font-size="3.6px" x="74.0" y="57">RAMP C</text><text fill="black" font-family="Arial" font-size="3.6px" x="74.0" y="65">HIGH SIDE</text><text fill="black" font-family="Arial" font-size="3.6px" x="119.0" y="65">LOW SIDE</text><text dominant-baseline="middle" fill="black" font-family="Arial" font-size="3.6px" text-anchor="middle" transform="rotate(-90 67.0 87.0)" x="67.0" y="87.0">GLUE TO WALL</text><text dominant-baseline="middle" fill="black" font-family="Arial" font-size="3.6px" text-anchor="middle" transform="rotate(90 142.0 87.0)" x="142.0" y="87.0">GLUE TO WALL</text><text fill="black" font-family="Arial" font-size="3.6px" x="96.5" y="43">BACK TAB</text><text fill="black" font-family="Arial" font-size="3.6px" x="74.0" y="125.0">FLOW -&gt;</text><polygon fill="#FF6600" points="72.0,59.0 77.0,59.0 72.0,64.0" stroke="black" stroke-width="0.3" /><polygon fill="#FF6600" points="132.0,59.0 137.0,59.0 137.0,64.0" stroke="black" stroke-width="0.3" /><polygon fill="#FF6600" points="72.0,73.0 77.0,73.0 72.0,78.0" stroke="black" stroke-width="0.3" /><polygon fill="#FF6600" points="132.0,73.0 137.0,73.0 137.0,78.0" stroke="black" stroke-width="0.3" /><polygon fill="#FF6600" points="72.0,87.0 77.0,87.0 72.0,92.0" stroke="black" stroke-width="0.3" /><polygon fill="#FF6600" points="132.0,87.0 137.0,87.0 137.0,92.0" stroke="black" stroke-width="0.3" /><polygon fill="#FF6600" points="72.0,101.0 77.0,101.0 72.0,106.0" stroke="black" stroke-width="0.3" /><polygon fill="#FF6600" points="132.0,101.0 137.0,101.0 137.0,106.0" stroke="black" stroke-width="0.3" /><polygon fill="#FF6600" points="72.0,115.0 77.0,115.0 72.0,120.0" stroke="black" stroke-width="0.3" /><polygon fill="#FF6600" points="132.0,115.0 137.0,115.0 137.0,120.0" stroke="black" stroke-width="0.3" /><text fill="black" font-family="Arial" font-size="3.6px" x="73.0" y="136.0">OUTER BLUE vertical = TAB fold</text><text fill="black" font-family="Arial" font-size="3.6px" x="73.0" y="141.0">INNER BLUE vertical = SIDE-WALL fold (5mm)</text><text fill="black" font-family="Arial" font-size="3.6px" x="73.0" y="146.0">ORANGE triangles = NOTCH: CUT &amp; REMOVE before folding</text><text fill="black" font-family="Arial" font-size="3.6px" x="10" y="259">LEGEND</text><line fill="none" stroke="black" stroke-width="0.5" x1="10" x2="28" y1="263" y2="263" /><text fill="black" font-family="Arial" font-size="3.6px" x="31" y="264">CUT</text><line fill="none" stroke="blue" stroke-dasharray="4,2" stroke-width="0.5" x1="10" x2="28" y1="269" y2="269" /><text fill="black" font-family="Arial" font-size="3.6px" x="31" y="270">VALLEY FOLD</text><line fill="none" stroke="red" stroke-dasharray="1,2" stroke-width="0.5" x1="10" x2="28" y1="275" y2="275" /><text fill="black" font-family="Arial" font-size="3.6px" x="31" y="276">MOUNTAIN FOLD</text><rect fill="#e6e6e6" height="6" stroke="none" width="18" x="10" y="279" /><text fill="black" font-family="Arial" font-size="3.6px" x="31" y="284">GLUE TAB</text><polygon fill="#FF6600" points="10,287 28,287 10,293" stroke="black" stroke-width="0.4" /><text fill="black" font-family="Arial" font-size="3.6px" x="31" y="292">NOTCH – CUT &amp; REMOVE</text><rect fill="none" height="20" stroke="black" stroke-width="0.5" width="20" x="180" y="267" /><text fill="black" font-family="Arial" font-size="3.6px" x="162" y="291">20 x 20 mm</text></svg>